{
	"asset":{
		"generator":"Khronos glTF Blender I/O v3.5.30",
		"version":"2.0"
	},
	"scene":0,
	"scenes":[
		{
			"name":"Scene",
			"nodes":[
				3,
				4
			]
		}
	],
	"nodes":[
		{
			"mesh":0,
			"name":"Cube-col",
			"scale":[
				0.20000000298023224,
				1,
				0.800000011920929
			],
			"translation":[
				1.1060991287231445,
				0,
				0
			]
		},
		{
			"mesh":1,
			"name":"Cube.001-col",
			"scale":[
				0.20000000298023224,
				1,
				0.800000011920929
			],
			"translation":[
				-1.1154582500457764,
				0,
				0
			]
		},
		{
			"mesh":2,
			"name":"Cylinder",
			"rotation":[
				-0.4218912720680237,
				0,
				0,
				0.9066464304924011
			],
			"scale":[
				1,
				1.7692300081253052,
				1
			],
			"translation":[
				0,
				0.822687029838562,
				-0.23198984563350677
			]
		},
		{
			"children":[
				0,
				1,
				2
			],
			"name":"Empty"
		},
		{
			"name":"collider-col",
			"scale":[
				1.7423253059387207,
				0.2977845072746277,
				2.3303725719451904
			]
		}
	],
	"meshes":[
		{
			"name":"Cube.001",
			"primitives":[
				{
					"attributes":{
						"POSITION":0,
						"TEXCOORD_0":1,
						"NORMAL":2
					},
					"indices":3
				}
			]
		},
		{
			"name":"Cube.002",
			"primitives":[
				{
					"attributes":{
						"POSITION":4,
						"TEXCOORD_0":5,
						"NORMAL":6
					},
					"indices":3
				}
			]
		},
		{
			"name":"Cylinder",
			"primitives":[
				{
					"attributes":{
						"POSITION":7,
						"TEXCOORD_0":8,
						"NORMAL":9
					},
					"indices":10
				}
			]
		}
	],
	"accessors":[
		{
			"bufferView":0,
			"componentType":5126,
			"count":24,
			"max":[
				1,
				1,
				1
			],
			"min":[
				-1,
				-1,
				-1
			],
			"type":"VEC3"
		},
		{
			"bufferView":1,
			"componentType":5126,
			"count":24,
			"type":"VEC2"
		},
		{
			"bufferView":2,
			"componentType":5126,
			"count":24,
			"type":"VEC3"
		},
		{
			"bufferView":3,
			"componentType":5123,
			"count":36,
			"type":"SCALAR"
		},
		{
			"bufferView":4,
			"componentType":5126,
			"count":24,
			"max":[
				1,
				1,
				1
			],
			"min":[
				-1,
				-1,
				-1
			],
			"type":"VEC3"
		},
		{
			"bufferView":5,
			"componentType":5126,
			"count":24,
			"type":"VEC2"
		},
		{
			"bufferView":6,
			"componentType":5126,
			"count":24,
			"type":"VEC3"
		},
		{
			"bufferView":7,
			"componentType":5126,
			"count":587,
			"max":[
				1,
				1,
				1
			],
			"min":[
				-1,
				-1,
				-1
			],
			"type":"VEC3"
		},
		{
			"bufferView":8,
			"componentType":5126,
			"count":587,
			"type":"VEC2"
		},
		{
			"bufferView":9,
			"componentType":5126,
			"count":587,
			"type":"VEC3"
		},
		{
			"bufferView":10,
			"componentType":5123,
			"count":1296,
			"type":"SCALAR"
		}
	],
	"bufferViews":[
		{
			"buffer":0,
			"byteLength":288,
			"byteOffset":0,
			"target":34962
		},
		{
			"buffer":0,
			"byteLength":192,
			"byteOffset":288,
			"target":34962
		},
		{
			"buffer":0,
			"byteLength":288,
			"byteOffset":480,
			"target":34962
		},
		{
			"buffer":0,
			"byteLength":72,
			"byteOffset":768,
			"target":34963
		},
		{
			"buffer":0,
			"byteLength":288,
			"byteOffset":840,
			"target":34962
		},
		{
			"buffer":0,
			"byteLength":192,
			"byteOffset":1128,
			"target":34962
		},
		{
			"buffer":0,
			"byteLength":288,
			"byteOffset":1320,
			"target":34962
		},
		{
			"buffer":0,
			"byteLength":7044,
			"byteOffset":1608,
			"target":34962
		},
		{
			"buffer":0,
			"byteLength":4696,
			"byteOffset":8652,
			"target":34962
		},
		{
			"buffer":0,
			"byteLength":7044,
			"byteOffset":13348,
			"target":34962
		},
		{
			"buffer":0,
			"byteLength":2592,
			"byteOffset":20392,
			"target":34963
		}
	],
	"buffers":[
		{
			"byteLength":22984,
			"uri":"data:application/octet-stream;base64,"
		}
	]
}
